<svg xmlns="http://www.w3.org/2000/svg" xml:space="preserve" width="1024" height="1024"><path d="M494 625c-21-9-31-26-33-54-1-35 10-65 31-86 15-13 28-21 55-31 35-13 50-25 58-43 7-18 0-46-15-59-21-17-51-26-84-25-56 3-81 20-90 61-7 32-18 46-40 51-25 6-49-8-57-34-6-22 1-61 17-88a215 215 0 0 1 328-29c26 27 39 53 42 87 8 71-39 140-117 169-19 8-23 12-26 32-4 21-8 30-20 40-15 14-32 17-49 9zm1 168c-19-7-35-25-40-46-2-11-2-14 1-23 11-28 23-39 46-44 31-6 61 14 69 47 2 10 2 14-2 25-3 10-6 15-16 25-18 18-37 24-58 16z" style="fill:#000;stroke-width:2.19386"/><path d="M474 1023a513 513 0 0 1-359-190C57 761 18 670 4 574c-5-33-5-95 0-130 4-31 15-76 26-105A526 526 0 0 1 402 10c40-9 69-11 124-10 62 2 98 8 149 25a525 525 0 0 1 315 301c28 72 39 156 32 234a525 525 0 0 1-286 411c-77 38-178 58-262 52zm81-103a392 392 0 0 0 241-111 395 395 0 0 0 118-384 402 402 0 0 0-336-321c-37-7-110-6-143 1-96 19-185 72-243 144-39 49-70 115-83 178a406 406 0 0 0 152 412 392 392 0 0 0 294 81z" style="fill:#000;stroke-width:2.19386"/></svg>